<svg width="14" height="16" viewBox="0 0 14 16" fill="none" xmlns="http://www.w3.org/2000/svg">
<path d="M1.65243 5.67413e-05C0.741512 5.67413e-05 0 0.7421 0 1.65299V14.347C0 15.2579 0.741512 15.9999 1.65243 15.9999H11.3592C12.2701 15.9999 13.0116 15.2579 13.0116 14.347V3.90899C13.0116 3.90899 13.0376 3.60334 12.9049 3.30592C12.7805 3.02712 12.5778 2.83308 12.5778 2.83308C12.5773 2.83239 12.5768 2.83171 12.5763 2.83103L10.168 0.468838C10.1667 0.46749 10.1654 0.466156 10.164 0.464836C10.164 0.464836 9.95841 0.269049 9.65362 0.138257C9.29473 -0.0157442 8.92482 0.000512628 8.92482 0.000512628L8.93033 0L1.65243 5.67413e-05Z" fill="#FF2116"/>
<path d="M1.65244 0.542969H8.93035C8.93219 0.542987 8.93402 0.542987 8.93586 0.542969C8.93586 0.542969 9.22689 0.545789 9.43975 0.637136C9.64464 0.725054 9.78991 0.858139 9.79088 0.859031C9.79088 0.859034 9.79188 0.860057 9.79188 0.860057L12.1941 3.21674C12.1941 3.21674 12.3389 3.36954 12.409 3.52679C12.4656 3.65371 12.4691 3.88593 12.4691 3.88593C12.4689 3.88976 12.4687 3.8936 12.4686 3.89744V14.347C12.4686 14.9666 11.9787 15.4569 11.3591 15.4569H1.65244C1.03286 15.4569 0.542969 14.9666 0.542969 14.347V1.65296C0.542969 1.03335 1.03286 0.542969 1.65244 0.542969Z" fill="#F5F5F5"/>
<path d="M3.24906 9.52618C2.87549 9.15261 3.27967 8.63926 4.37656 8.09415L5.06674 7.75116L5.33562 7.16285C5.48351 6.83928 5.70422 6.31133 5.8261 5.98962L6.04771 5.40469L5.895 4.97181C5.70723 4.43955 5.64027 3.63969 5.7594 3.35208C5.92077 2.9625 6.44934 3.00247 6.6586 3.42008C6.82203 3.74623 6.80532 4.33687 6.6116 5.08177L6.45277 5.69245L6.59267 5.92994C6.66961 6.06055 6.89436 6.3707 7.09212 6.61914L7.46378 7.08146L7.92626 7.02111C9.3955 6.82939 9.89872 7.15523 9.89872 7.62243C9.89872 8.21207 8.74506 8.26075 7.77628 7.58031C7.5583 7.42722 7.40861 7.27513 7.40861 7.27513C7.40861 7.27513 6.8017 7.39868 6.50289 7.47922C6.19445 7.56236 6.04057 7.61442 5.58875 7.76693C5.58875 7.76693 5.43023 7.99714 5.32693 8.1645C4.94261 8.78715 4.49388 9.30316 4.17341 9.49096C3.8146 9.70124 3.43845 9.71557 3.24906 9.52618ZM3.83533 9.31674C4.04532 9.18696 4.47035 8.68426 4.76457 8.2177L4.88369 8.0288L4.3413 8.30151C3.50357 8.72271 3.12033 9.11968 3.31962 9.35981C3.43157 9.4947 3.56549 9.48351 3.83533 9.31674ZM9.27681 7.78935C9.48221 7.64549 9.45239 7.35558 9.22018 7.23869C9.03947 7.14772 8.89382 7.12904 8.42436 7.13597C8.13588 7.15564 7.67199 7.21377 7.59336 7.23146C7.59336 7.23146 7.84821 7.40759 7.96135 7.47233C8.11197 7.55835 8.47798 7.71804 8.74521 7.79984C9.00881 7.88052 9.16128 7.87202 9.27681 7.78935ZM7.08886 6.87998C6.96456 6.74931 6.75319 6.47659 6.61916 6.27393C6.44387 6.04403 6.35596 5.88184 6.35596 5.88184C6.35596 5.88184 6.22784 6.29395 6.12272 6.54194L5.79478 7.35253L5.6997 7.5364C5.6997 7.5364 6.20518 7.37066 6.46237 7.30348C6.73477 7.23233 7.28761 7.12362 7.28761 7.12362L7.08886 6.87998ZM6.38377 4.05237C6.41548 3.7863 6.42893 3.52063 6.34345 3.38665C6.10633 3.12743 5.82013 3.3436 5.86861 3.95987C5.88492 4.16719 5.93642 4.52159 6.00528 4.74003L6.13047 5.13719L6.21859 4.83806C6.26705 4.67354 6.34138 4.31998 6.38377 4.05237Z" fill="#FF2116"/>
<path d="M3.88428 11.2559H4.49079C4.68459 11.2559 4.8419 11.2744 4.96272 11.3115C5.08355 11.3474 5.18523 11.4281 5.26777 11.5537C5.35032 11.6781 5.39159 11.8283 5.39159 12.0041C5.39159 12.1656 5.35809 12.3044 5.2911 12.4204C5.22411 12.5365 5.13379 12.6202 5.02014 12.6717C4.90769 12.7231 4.73423 12.7488 4.49976 12.7488H4.28982V13.7052H3.88428V11.2559ZM4.28982 11.5699V12.424H4.49079C4.67023 12.424 4.79405 12.3905 4.86223 12.3235C4.93162 12.2565 4.96631 12.1477 4.96631 11.997C4.96631 11.8845 4.94358 11.7936 4.89812 11.7242C4.85266 11.6536 4.80242 11.6106 4.74739 11.595C4.69356 11.5782 4.60803 11.5699 4.49079 11.5699L4.28982 11.5699ZM5.70202 11.2559H6.25291C6.51968 11.2559 6.73261 11.3031 6.89172 11.3976C7.05202 11.4921 7.17284 11.6327 7.25419 11.8193C7.33673 12.0059 7.37801 12.2129 7.37801 12.4402C7.37801 12.6794 7.34092 12.893 7.26675 13.0808C7.19378 13.2674 7.08133 13.4181 6.9294 13.533C6.77867 13.6478 6.56334 13.7052 6.28341 13.7052H5.70202V11.2559ZM6.10756 11.5806V13.3804H6.27623C6.5119 13.3804 6.68297 13.2991 6.78944 13.1364C6.89591 12.9725 6.94914 12.7542 6.94914 12.4814C6.94914 11.8809 6.72484 11.5806 6.27623 11.5806H6.10756ZM7.76739 11.2559H9.12756V11.5806H8.17293V12.3128H8.93735V12.6376H8.17293V13.7052H7.76739V11.2559Z" fill="#2C2C2C"/>
</svg>
