<svg width="68" height="68" viewBox="0 0 68 68" fill="none" xmlns="http://www.w3.org/2000/svg">
<path d="M63.0601 17.4202V61.7701C63.0601 63.97 61.2801 65.7501 59.0801 65.7501H16.01C13.8101 65.7501 12.03 63.97 12.03 61.7701V6.22998C12.03 4.03003 13.8101 2.25 16.01 2.25H47.5501L63.0601 17.4202Z" fill="#DBDBDB"/>
<path d="M38.8858 62.2513H16.0078C15.7314 62.2513 15.5078 62.0277 15.5078 61.7513C15.5078 61.4749 15.7314 61.2513 16.0078 61.2513H38.8858C39.1621 61.2513 39.3858 61.4749 39.3858 61.7513C39.3858 62.0277 39.1621 62.2513 38.8858 62.2513Z" fill="white"/>
<path d="M59.0562 54.3943H16.0078C15.7314 54.3943 15.5078 54.1707 15.5078 53.8943C15.5078 53.618 15.7314 53.3943 16.0078 53.3943H59.0562C59.3326 53.3943 59.5562 53.618 59.5562 53.8943C59.5562 54.1707 59.3326 54.3943 59.0562 54.3943Z" fill="white"/>
<path d="M59.0562 46.5374H16.0078C15.7314 46.5374 15.5078 46.3138 15.5078 46.0374C15.5078 45.761 15.7314 45.5374 16.0078 45.5374H59.0562C59.3326 45.5374 59.5562 45.761 59.5562 46.0374C59.5562 46.3138 59.3326 46.5374 59.0562 46.5374Z" fill="white"/>
<path d="M59.0562 38.6805H16.0078C15.7314 38.6805 15.5078 38.4568 15.5078 38.1805C15.5078 37.9041 15.7314 37.6805 16.0078 37.6805H59.0562C59.3326 37.6805 59.5562 37.9041 59.5562 38.1805C59.5562 38.4568 59.3326 38.6805 59.0562 38.6805Z" fill="white"/>
<path d="M28.2227 30.8235H16.0078C15.7314 30.8235 15.5078 30.5999 15.5078 30.3235C15.5078 30.0471 15.7314 29.8235 16.0078 29.8235H28.2227C28.499 29.8235 28.7227 30.0471 28.7227 30.3235C28.7227 30.5999 28.499 30.8235 28.2227 30.8235Z" fill="white"/>
<path d="M49.6607 30.8235H32.5918C32.3154 30.8235 32.0918 30.5999 32.0918 30.3235C32.0918 30.0471 32.3154 29.8235 32.5918 29.8235H49.6607C49.937 29.8235 50.1607 30.0471 50.1607 30.3235C50.1607 30.5999 49.937 30.8235 49.6607 30.8235Z" fill="white"/>
<path d="M59.0562 30.8235H54.3584C54.082 30.8235 53.8584 30.5999 53.8584 30.3235C53.8584 30.0471 54.082 29.8235 54.3584 29.8235H59.0562C59.3325 29.8235 59.5562 30.0471 59.5562 30.3235C59.5562 30.5999 59.3325 30.8235 59.0562 30.8235Z" fill="white"/>
<path d="M21.7227 22.9671H16.0078C15.7314 22.9671 15.5078 22.7434 15.5078 22.4671C15.5078 22.1907 15.7314 21.9671 16.0078 21.9671H21.7227C21.999 21.9671 22.2227 22.1907 22.2227 22.4671C22.2227 22.7434 21.999 22.9671 21.7227 22.9671Z" fill="white"/>
<path d="M45.1392 22.9671H24.9727C24.6963 22.9671 24.4727 22.7434 24.4727 22.4671C24.4727 22.1907 24.6963 21.9671 24.9727 21.9671H45.1392C45.4156 21.9671 45.6392 22.1907 45.6392 22.4671C45.6392 22.7434 45.4156 22.9671 45.1392 22.9671Z" fill="white"/>
<path d="M59.0562 22.9671H48.9727C48.6963 22.9671 48.4727 22.7434 48.4727 22.4671C48.4727 22.1907 48.6963 21.9671 48.9727 21.9671H59.0562C59.3325 21.9671 59.5562 22.1907 59.5562 22.4671C59.5562 22.7434 59.3325 22.9671 59.0562 22.9671Z" fill="white"/>
<path d="M36.72 7.69019V13.6902C36.72 14.49 36.0801 15.1301 35.28 15.1301H17.47C16.6699 15.1301 16.03 14.49 16.03 13.6902V7.67017C16.03 6.87012 16.6799 6.22998 17.47 6.22998L35.28 6.25C36.0801 6.25 36.72 6.90015 36.72 7.69019Z" fill="#6B6B6B"/>
<path d="M63.0601 17.4202H51.53C49.3301 17.4202 47.55 15.6402 47.55 13.4402V2.25L63.0601 17.4202Z" fill="#909AA7"/>
<path d="M49.6602 40.3301V54.9402C49.6602 56.74 48.21 58.1902 46.4102 58.1902H8.18994C6.3999 58.1902 4.93994 56.74 4.93994 54.9402V40.3301C4.93994 38.5401 6.3999 37.0801 8.18994 37.0801H46.4102C48.21 37.0801 49.6602 38.5401 49.6602 40.3301Z" fill="#6B6B6B"/>
<path d="M19.7394 41.6675H11.5605C11.3003 41.6675 11.0705 41.764 10.8956 41.9468C10.7208 42.1291 10.6322 42.3529 10.6322 42.6126C10.6322 42.8742 10.7222 43.097 10.8989 43.2737C11.0756 43.4509 11.298 43.5409 11.5605 43.5409H14.6722V52.7129C14.6722 52.9856 14.7678 53.2192 14.9557 53.4071C15.1436 53.595 15.3772 53.6906 15.6499 53.6906C15.9208 53.6906 16.1558 53.5964 16.3493 53.4104C16.5451 53.222 16.6444 52.9875 16.6444 52.7129V43.5409H19.7394C20 43.5409 20.2238 43.4523 20.4052 43.2775C20.5908 43.1003 20.6845 42.8765 20.6845 42.6126C20.6845 42.351 20.5917 42.1258 20.4094 41.9435C20.2266 41.7603 20.0014 41.6675 19.7394 41.6675Z" fill="white"/>
<path d="M28.4807 47.621L32.1603 43.0812C32.2773 42.9189 32.3365 42.7338 32.3365 42.5305C32.3365 42.2671 32.2405 42.041 32.0502 41.8577C31.6315 41.4549 30.9284 41.5267 30.6454 41.9403L27.3673 46.1342L24.0937 41.9766C24.0066 41.8605 23.89 41.765 23.7464 41.6927C23.3552 41.4973 22.8955 41.5733 22.6097 41.8606C22.4264 42.0433 22.3337 42.2741 22.3337 42.5469C22.3337 42.7739 22.3994 42.9772 22.5351 43.1572L26.1737 47.6383L22.4964 52.159C22.3668 52.3324 22.301 52.5353 22.301 52.7623C22.301 53.0132 22.3933 53.2332 22.5761 53.4155C22.9719 53.8104 23.5925 53.7843 23.9921 53.3032L27.2712 49.1079L30.5923 53.2813C30.789 53.5494 31.0599 53.6906 31.3756 53.6906C31.6605 53.6906 31.8973 53.5941 32.081 53.4039C32.2614 53.2165 32.3533 52.9838 32.3533 52.7129C32.3533 52.4779 32.2829 52.2807 32.1519 52.1352L28.4807 47.621Z" fill="white"/>
<path d="M43.637 41.9435C43.4543 41.7603 43.2291 41.6675 42.967 41.6675H34.7882C34.528 41.6675 34.2981 41.764 34.1233 41.9468C33.9485 42.1291 33.8599 42.3529 33.8599 42.6126C33.8599 42.8742 33.9499 43.097 34.1266 43.2737C34.3033 43.4509 34.5257 43.5409 34.7882 43.5409H37.8999V52.7129C37.8999 52.9856 37.9955 53.2192 38.1834 53.4071C38.3713 53.595 38.6048 53.6906 38.8776 53.6906C39.1485 53.6906 39.3835 53.5964 39.577 53.4104C39.7728 53.222 39.8721 52.9875 39.8721 52.7129V43.5409H42.9671C43.2277 43.5409 43.4515 43.4523 43.6329 43.2775C43.8184 43.1003 43.9121 42.8765 43.9121 42.6126C43.9121 42.351 43.8194 42.1258 43.637 41.9435Z" fill="white"/>
</svg>
